<?xml version="1.0"?>
<svg xmlns="http://www.w3.org/2000/svg" id="_x33_0" enable-background="new 0 0 64 64" height="512px" viewBox="0 0 64 64" width="512px" class="hovered-paths"><g><g><path d="m9 51h2v10h-2z" data-original="#000000" class="hovered-path active-path" data-old_color="#000000" fill="#FFFFFF"/><path d="m13 51h2v10h-2z" data-original="#000000" class="hovered-path active-path" data-old_color="#000000" fill="#FFFFFF"/><path d="m5 51h2v10h-2z" data-original="#000000" class="hovered-path active-path" data-old_color="#000000" fill="#FFFFFF"/><path d="m17 51h2v10h-2z" data-original="#000000" class="hovered-path active-path" data-old_color="#000000" fill="#FFFFFF"/><path d="m7 37h2v4h-2z" data-original="#000000" class="hovered-path active-path" data-old_color="#000000" fill="#FFFFFF"/><path d="m3 47h16v2h-16z" data-original="#000000" class="hovered-path active-path" data-old_color="#000000" fill="#FFFFFF"/><path d="m7 35h2c1.103 0 2 .897 2 2v4c0 1.103-.897 2-2 2h-2v2h12v-2h-4c-1.103 0-2-.897-2-2v-4c0-1.103.897-2 2-2h4v-2h-12z" data-original="#000000" class="hovered-path active-path" data-old_color="#000000" fill="#FFFFFF"/><path d="m3 29h16v2h-16z" data-original="#000000" class="hovered-path active-path" data-old_color="#000000" fill="#FFFFFF"/><path d="m10.865 23h-2.451l-4 4h3.117z" data-original="#000000" class="hovered-path active-path" data-old_color="#000000" fill="#FFFFFF"/><path d="m53.865 27-3.334-4h-2.663l2.667 4z" data-original="#000000" class="hovered-path active-path" data-old_color="#000000" fill="#FFFFFF"/><path d="m45.465 23h-.465v4h3.132z" data-original="#000000" class="hovered-path active-path" data-old_color="#000000" fill="#FFFFFF"/><path d="m59.586 27-4-4h-2.451l3.334 4z" data-original="#000000" class="hovered-path active-path" data-old_color="#000000" fill="#FFFFFF"/><path d="m45 37h4v4h-4z" data-original="#000000" class="hovered-path active-path" data-old_color="#000000" fill="#FFFFFF"/><path d="m57 43h-2c-1.103 0-2-.897-2-2v-4c0-1.103.897-2 2-2h2v-2h-12v2h4c1.103 0 2 .897 2 2v4c0 1.103-.897 2-2 2h-4v2h12z" data-original="#000000" class="hovered-path active-path" data-old_color="#000000" fill="#FFFFFF"/><path d="m38.92 19c-.441-3.059-2.861-5.479-5.92-5.92v1.92h-2v-1.92c-3.059.441-5.479 2.861-5.92 5.92h1.92v2h-1.92c.441 3.059 2.861 5.479 5.92 5.92v-1.92h2v1.92c3.059-.441 5.479-2.861 5.92-5.92h-1.92v-2zm-3.92 1c0 1.654-1.346 3-3 3s-3-1.346-3-3c0-.462.113-.894.301-1.285l-2.008-2.008 1.414-1.414 2.008 2.008c.391-.188.823-.301 1.285-.301s.894.113 1.285.301l1.008-1.008 1.414 1.414-1.008 1.008c.188.391.301.823.301 1.285z" data-original="#000000" class="hovered-path active-path" data-old_color="#000000" fill="#FFFFFF"/><path d="m32 11c3.113 0 5.862 1.59 7.478 4h2.464l-9.11-11.596c-.404-.514-1.259-.514-1.663 0l-9.111 11.596h2.464c1.616-2.41 4.365-4 7.478-4z" data-original="#000000" class="hovered-path active-path" data-old_color="#000000" fill="#FFFFFF"/><path d="m55 37h2v4h-2z" data-original="#000000" class="hovered-path active-path" data-old_color="#000000" fill="#FFFFFF"/><path d="m13.465 27 2.667-4h-2.663l-3.334 4z" data-original="#000000" class="hovered-path active-path" data-old_color="#000000" fill="#FFFFFF"/><path d="m15 37h4v4h-4z" data-original="#000000" class="hovered-path active-path" data-old_color="#000000" fill="#FFFFFF"/><path d="m49 51h2v10h-2z" data-original="#000000" class="hovered-path active-path" data-old_color="#000000" fill="#FFFFFF"/><path d="m45 51h2v10h-2z" data-original="#000000" class="hovered-path active-path" data-old_color="#000000" fill="#FFFFFF"/><path d="m53 51h2v10h-2z" data-original="#000000" class="hovered-path active-path" data-old_color="#000000" fill="#FFFFFF"/><path d="m41 20c0 4.963-4.038 9-9 9s-9-4.037-9-9c0-1.053.191-2.06.525-3h-2.525v44h4v-10c-1.103 0-2-.897-2-2v-2c0-1.103.897-2 2-2h14c1.103 0 2 .897 2 2v2c0 1.103-.897 2-2 2v10h4v-44h-2.525c.334.94.525 1.947.525 3zm-6 12v3h-2v-3zm-4 0v3h-2v-3zm-7 1c0-.552.448-1 1-1h2v3h-3zm1 7c-.552 0-1-.448-1-1v-2h3v3zm4 0v-3h2v3zm4 0v-3h2v3zm7-1c0 .552-.448 1-1 1h-2v-3h3zm0-4h-3v-3h2c.552 0 1 .448 1 1z" data-original="#000000" class="hovered-path active-path" data-old_color="#000000" fill="#FFFFFF"/><path d="m45 29h16v2h-16z" data-original="#000000" class="hovered-path active-path" data-old_color="#000000" fill="#FFFFFF"/><path d="m45 47h16v2h-16z" data-original="#000000" class="hovered-path active-path" data-old_color="#000000" fill="#FFFFFF"/><path d="m57 51h2v10h-2z" data-original="#000000" class="hovered-path active-path" data-old_color="#000000" fill="#FFFFFF"/><path d="m27 51h4v10h-4z" data-original="#000000" class="hovered-path active-path" data-old_color="#000000" fill="#FFFFFF"/><path d="m25 47h14.001v2h-14.001z" data-original="#000000" class="hovered-path active-path" data-old_color="#000000" fill="#FFFFFF"/><path d="m33 51h4v10h-4z" data-original="#000000" class="hovered-path active-path" data-old_color="#000000" fill="#FFFFFF"/><path d="m15.868 27h3.132v-4h-.465z" data-original="#000000" class="hovered-path active-path" data-old_color="#000000" fill="#FFFFFF"/></g></g> </svg>
