<svg id="Capa_1" enable-background="new 0 0 512 512" height="512" viewBox="0 0 512 512" width="512" xmlns="http://www.w3.org/2000/svg"><g><path d="m60 185.591h30v60.818h-30z"/><path d="m120 185.591h30v60.818h-30z"/><path d="m60 276.409h30v60.818h-30z"/><path d="m120 276.409h30v60.818h-30z"/><path d="m241 260.59h30v60.818h-30z"/><path d="m241 169.771h30v60.818h-30z"/><path d="m332 125.591v-30h16v-30h-184v30h16v30h-180v320.818h512v-320.818zm-182 290.818v-49.182h-30v49.182h-30v-49.182h-30v49.182h-30v-260.818h150v260.818zm121 0v-65h-30v65h-31v-320.818h92v320.818zm211 0h-30v-49.182h-30v49.182h-30v-49.182h-30v49.182h-30v-260.818h150z"/><path d="m422 185.591h30v60.818h-30z"/><path d="m362 185.591h30v60.818h-30z"/><path d="m422 276.409h30v60.818h-30z"/><path d="m362 276.409h30v60.818h-30z"/></g></svg>