<?xml version="1.0"?>
<svg xmlns="http://www.w3.org/2000/svg" id="Capa_1" enable-background="new 0 0 512 512" height="512px" viewBox="0 0 512 512" width="512px"><g><g><path d="m60 185.591h30v60.818h-30z" data-original="#000000" class="active-path" data-old_color="#000000" fill="#FFFFFF"/><path d="m120 185.591h30v60.818h-30z" data-original="#000000" class="active-path" data-old_color="#000000" fill="#FFFFFF"/><path d="m60 276.409h30v60.818h-30z" data-original="#000000" class="active-path" data-old_color="#000000" fill="#FFFFFF"/><path d="m120 276.409h30v60.818h-30z" data-original="#000000" class="active-path" data-old_color="#000000" fill="#FFFFFF"/><path d="m241 260.59h30v60.818h-30z" data-original="#000000" class="active-path" data-old_color="#000000" fill="#FFFFFF"/><path d="m241 169.771h30v60.818h-30z" data-original="#000000" class="active-path" data-old_color="#000000" fill="#FFFFFF"/><path d="m332 125.591v-30h16v-30h-184v30h16v30h-180v320.818h512v-320.818zm-182 290.818v-49.182h-30v49.182h-30v-49.182h-30v49.182h-30v-260.818h150v260.818zm121 0v-65h-30v65h-31v-320.818h92v320.818zm211 0h-30v-49.182h-30v49.182h-30v-49.182h-30v49.182h-30v-260.818h150z" data-original="#000000" class="active-path" data-old_color="#000000" fill="#FFFFFF"/><path d="m422 185.591h30v60.818h-30z" data-original="#000000" class="active-path" data-old_color="#000000" fill="#FFFFFF"/><path d="m362 185.591h30v60.818h-30z" data-original="#000000" class="active-path" data-old_color="#000000" fill="#FFFFFF"/><path d="m422 276.409h30v60.818h-30z" data-original="#000000" class="active-path" data-old_color="#000000" fill="#FFFFFF"/><path d="m362 276.409h30v60.818h-30z" data-original="#000000" class="active-path" data-old_color="#000000" fill="#FFFFFF"/></g></g> </svg>
