<svg id="Capa_1" enable-background="new 0 0 512 512" height="512" viewBox="0 0 512 512" width="512" xmlns="http://www.w3.org/2000/svg"><g><path d="m191.203 449.827h-48.734l-15-10-15 10h-33.735l-15-10-15 10h-48.734v-293.919l191.203-15 10 154.459z" fill="#fad17f"/><g><path d="m0 125.908h201.203v30h-201.203z" fill="#c83c50"/></g><path d="m320.797 449.827h48.734l15-10 15 10h33.735l15.231-10 14.769 10h48.734v-293.919l-191.203-15-10 154.459z" fill="#e8ba64"/><g><path d="m310.797 125.908h201.203v30h-201.203z" fill="#962a3a"/></g><g><path d="m48.734 192.282h30v64.604h-30z" fill="#ffe89c"/></g><path d="m191.203 77.173v372.654h49.797l15-10 10-186.515-10-176.139z" fill="#ffe89c"/><path d="m320.797 77.173h-64.797v362.654l15 10h49.797z" fill="#fad17f"/><g><path d="m112.469 192.282h30v64.604h-30z" fill="#ffe89c"/></g><g><path d="m48.734 288.753h30v64.603h-30z" fill="#ffe89c"/></g><g><path d="m112.469 288.753h30v64.603h-30z" fill="#ffe89c"/></g><g><path d="m48.734 385.223h30v64.604h-30z" fill="#ffe89c"/></g><g><path d="m112.469 385.223h30v64.604h-30z" fill="#ffe89c"/></g><g><path d="m369.531 385.223h30v64.604h-30z" fill="#fad17f"/></g><path d="m256 92.173h-97.727v-30h97.727l10 15z" fill="#c83c50"/><g><path d="m241 171.904v64.603h15l10-32.301-10-32.302z" fill="#fcf7ca"/><path d="m256 171.904h15v64.604h-15z" fill="#ffe89c"/></g><g><path d="m241 268.375v64.604h15l10-32.302-10-32.302z" fill="#fcf7ca"/><path d="m256 268.375h15v64.604h-15z" fill="#ffe89c"/></g><g><path d="m433.266 385.223h30v64.604h-30z" fill="#fad17f"/></g><g><path d="m433.266 192.282h30v64.604h-30z" fill="#fad17f"/></g><g><path d="m369.531 192.282h30v64.604h-30z" fill="#fad17f"/></g><g><path d="m433.266 288.753h30v64.603h-30z" fill="#fad17f"/></g><g><path d="m369.531 288.753h30v64.603h-30z" fill="#fad17f"/></g><g><path d="m241 364.848v84.979h15l10-40.5-10-44.479z" fill="#e27726"/><path d="m256 364.848h15v84.979h-15z" fill="#bc5f19"/></g><path d="m256 62.173h97.727v30h-97.727z" fill="#962a3a"/></g></svg>